<svg xmlns="http://www.w3.org/2000/svg" width="500" height="500" viewBox="0 0 500 500">
  <style type="text/css">
    .st0{fill-rule:evenodd;clip-rule:evenodd;fill:#FFFFFF;}
    .st1{fill-rule:evenodd;clip-rule:evenodd;fill:#383838;}
  </style>
  <circle class="st0" cx="250" cy="250" r="250"/>
  <path class="st1" d="M380.4,160.8c3.5-27.5-2.6-49.5-18.2-66C346.5,78.3,322.6,70,290.3,70c-22.4,0-42.7,5.1-61,15.3
	c-18.3,10.2-34.2,23.7-47.6,40.5c-15.6,19.7-28.6,44.3-38.8,73.8c-5.8,16.6-11.5,38.2-17.3,64.7c-9.6,45.2-9.3,82.1,0.7,110.7
	c12.9,36.6,41.3,54.9,85.1,54.9c40.7,0,73.4-12.4,98-37.1c24.6-24.8,40.4-53.4,47.2-85.8c7-32.6,2.9-59.4-12.4-80.3
	c-15.3-20.9-38.3-31.4-69.1-31.4c-13.6-0.1-27.2,2.2-39.9,7c-12.8,5-24.4,12.5-34.2,22c7.7-26.9,15.5-47.1,23.5-60.9
	c14.7-24.9,33.1-37.4,55.4-37.4c14.8,0,24.7,5.4,29.7,16.3c3,6.7,3.9,12.9,2.6,18.4H380.4z M215.3,260.6
	c9.7-6.8,21.2-10.5,33.1-10.6c14.4,0,25.4,5.4,32.9,16.2c7.6,10.8,9.2,26.3,4.9,46.6c-3.8,18.2-11.3,33-22.4,44.5
	c-11.1,11.4-24.3,17.1-39.4,17.1c-15.5,0-27-5.9-34.6-17.8c-7.6-11.8-9.4-27.1-5.4-45.8C189.3,287.7,199.6,270.9,215.3,260.6z"/>
</svg>
